{"glyphs":{":":{"x_min":0,"x_max":238,"ha":238,"o":"m 213 410 q 212 386 210 374 q 209 363 200 347 q 185 318 124 318 q 64 318 44 338 q 25 357 25 413 q 25 471 46 487 q 71 505 122 505 q 174 505 194 485 q 213 465 213 410 z m 213 91 q 212 67 210 56 q 209 44 200 28 q 185 -1 124 -1 q 64 -1 44 18 q 25 38 25 94 q 25 152 46 168 q 71 186 122 186 q 174 186 194 166 q 213 147 213 91 z"},"$":{"x_min":0,"x_max":475,"ha":475,"o":"m 450 243 q 450 165 405 118 q 360 71 296 56 l 296 -8 q 296 -43 290 -57 q 283 -71 270 -76 q 258 -81 237 -81 q 216 -81 204 -76 q 191 -71 186 -58 q 179 -41 179 -7 l 179 55 q 138 64 105 85 q 72 106 59 122 l 46 139 q 25 166 25 186 q 25 206 59 239 q 79 258 102 258 q 124 258 164 218 q 195 180 234 180 q 308 180 308 241 q 308 263 280 275 q 252 287 212 296 q 172 306 132 322 q 92 338 64 377 q 36 416 36 476 q 36 536 74 584 q 112 632 179 646 l 179 702 q 179 736 185 751 q 195 775 238 775 q 265 775 278 764 q 292 752 294 739 q 296 726 296 701 l 296 645 q 324 639 347 628 q 370 617 379 610 l 388 602 l 392 599 q 417 576 417 561 q 417 546 394 511 q 370 476 342 476 q 324 476 312 485 q 299 494 292 500 q 285 506 279 510 q 262 521 236 521 q 210 521 193 508 q 176 496 176 474 q 176 452 196 438 q 217 425 247 420 q 277 416 313 406 q 349 395 379 381 q 409 367 430 332 q 450 296 450 243 z"},"?":{"x_min":0,"x_max":512,"ha":512,"o":"m 173 335 l 174 343 q 174 386 198 411 q 223 436 252 444 q 281 452 306 471 q 330 490 330 522 q 330 555 312 573 q 293 591 256 591 q 219 591 202 580 q 184 568 180 556 l 177 544 q 168 518 156 504 q 144 491 125 491 q 106 491 75 503 q 15 526 15 560 q 15 575 21 590 q 27 606 31 616 q 35 627 52 653 q 70 679 92 698 q 115 718 156 734 q 197 751 247 751 q 353 751 420 683 q 487 615 487 525 q 487 482 472 446 q 456 409 434 388 q 390 346 352 332 l 336 327 q 336 310 334 301 q 333 292 326 282 q 318 271 300 266 q 283 262 254 262 q 225 262 208 267 q 190 272 183 284 q 176 296 174 306 q 173 315 173 335 z m 345 91 q 345 51 335 32 q 325 12 304 6 q 284 -1 241 -1 q 198 -1 175 20 q 158 37 158 78 l 158 94 q 158 117 160 129 q 161 141 169 156 q 177 172 198 179 q 218 186 262 186 q 306 186 326 166 q 345 147 345 91 z"},"<":{"x_min":0,"x_max":627,"ha":627,"o":"m 54 275 q 15 294 15 344 q 15 394 55 414 q 398 617 449 648 q 500 679 510 682 q 521 687 536 687 q 563 687 592 638 q 611 607 611 592 q 611 576 604 565 q 595 549 563 528 q 265 352 253 344 l 563 160 q 582 149 590 142 q 612 124 612 103 q 612 83 594 54 q 577 26 563 14 q 549 2 534 2 q 514 2 482 21 z"},"'":{"x_min":0,"x_max":208,"ha":208,"o":"m 25 635 q 25 698 42 714 q 63 733 98 733 q 132 733 150 726 q 167 718 174 702 q 183 677 183 620 q 183 563 161 472 q 139 381 104 381 q 68 381 46 472 q 25 563 25 635 z"},"=":{"x_min":0,"x_max":478,"ha":478,"o":"m 383 254 l 94 254 q 42 254 32 286 q 26 303 26 330 q 26 356 32 372 q 37 389 49 395 q 67 404 95 404 l 384 404 q 437 404 448 372 q 453 356 453 329 q 453 302 448 286 q 443 269 431 262 q 419 256 410 255 q 402 254 383 254 z m 383 42 l 94 42 q 41 42 30 74 q 25 91 25 118 q 25 144 30 160 q 36 177 48 183 q 67 192 95 192 l 384 192 q 436 192 446 160 q 452 144 452 117 q 452 90 447 74 q 442 57 430 50 q 418 44 410 43 q 401 42 383 42 z"},"L":{"x_min":0,"x_max":587,"ha":587,"o":"m 217 148 l 489 148 q 522 148 537 140 q 552 133 557 117 q 562 101 562 74 q 562 48 557 32 q 552 16 540 10 q 521 0 488 0 l 128 0 q 58 0 46 38 q 40 54 40 89 l 40 645 q 40 668 42 680 q 43 691 51 706 q 65 733 129 733 q 199 733 212 696 q 217 679 217 644 z"},"3":{"x_min":0,"x_max":608,"ha":608,"o":"m 489 390 l 489 383 q 499 378 518 362 q 538 345 550 329 q 583 287 583 233 q 583 126 503 56 q 423 -13 302 -13 q 182 -13 102 57 q 72 84 49 128 q 41 144 38 154 l 36 164 q 25 197 25 218 q 25 276 123 276 q 163 276 176 266 q 193 253 206 214 q 216 182 261 166 q 280 160 303 160 q 356 160 381 182 q 406 203 406 230 q 406 257 382 278 q 357 298 324 298 q 290 298 278 300 q 266 302 252 310 q 225 323 225 387 q 225 457 262 470 q 279 475 314 475 q 390 475 390 514 q 390 535 370 554 q 350 573 314 573 q 279 573 258 561 q 237 549 232 537 l 226 525 q 203 475 160 475 q 135 475 105 493 q 55 522 55 560 q 55 576 78 628 q 82 637 100 660 q 118 682 142 699 q 165 716 208 730 q 250 744 302 744 q 425 744 496 674 q 567 604 567 516 q 567 429 489 390 z"},";":{"x_min":0,"x_max":237,"ha":237,"o":"m 195 484 q 212 466 212 414 l 212 410 q 212 386 210 374 q 209 363 200 347 q 185 318 124 318 q 64 318 44 337 q 25 356 25 409 l 25 413 q 25 436 26 448 q 28 460 36 476 q 51 505 112 505 q 172 505 195 484 z m 195 165 q 212 148 212 95 l 212 91 q 212 -19 154 -97 q 107 -160 44 -160 q 37 -160 32 -150 q 26 -139 26 -122 q 26 -105 30 -96 q 35 -86 42 -84 q 49 -81 56 -76 q 63 -70 76 -48 q 90 -27 92 0 q 59 4 42 20 q 25 37 25 90 l 25 94 q 25 117 26 129 q 28 141 36 156 q 51 186 112 186 q 172 186 195 165 z"},"J":{"x_min":0,"x_max":549,"ha":549,"o":"m 498 705 q 509 682 509 643 l 509 256 q 509 151 433 70 q 357 -10 239 -10 q 173 -10 122 19 q 76 44 58 64 l 50 72 q 15 109 15 136 q 15 162 50 198 q 85 234 112 234 q 139 234 172 201 q 205 168 244 168 q 282 168 307 194 q 332 220 332 263 l 332 637 q 332 697 352 714 q 375 733 414 733 q 453 733 472 726 q 490 720 498 705 z"},"V":{"x_min":0,"x_max":783,"ha":783,"o":"m 709 722 q 768 693 768 658 q 768 642 753 610 l 477 50 q 466 28 444 14 q 421 1 397 1 l 387 1 q 362 1 340 14 q 317 28 306 50 l 30 610 q 15 642 15 658 q 15 693 74 722 q 107 739 124 739 q 142 739 151 735 q 160 731 168 721 q 177 709 184 694 q 192 680 223 612 q 254 543 290 466 q 325 389 356 320 q 388 252 392 244 l 592 682 q 600 701 606 712 q 624 739 650 739 q 676 739 709 722 z"},"\"":{"x_min":0,"x_max":429,"ha":429,"o":"m 25 635 q 25 698 42 714 q 63 733 98 733 q 132 733 150 726 q 167 718 174 702 q 183 677 183 620 q 183 563 161 472 q 139 381 104 381 q 68 381 46 472 q 25 563 25 635 z m 246 635 q 246 712 280 726 q 297 733 326 733 q 354 733 371 726 q 388 718 394 702 q 404 677 404 620 q 404 563 382 472 q 360 381 324 381 q 289 381 268 472 q 246 563 246 635 z"},"7":{"x_min":0,"x_max":561,"ha":561,"o":"m 458 732 q 528 732 540 694 q 546 678 546 638 q 546 598 520 538 q 494 479 458 421 q 421 363 384 304 q 296 161 296 74 q 296 52 294 42 q 292 31 284 20 q 276 8 258 4 q 239 0 207 0 q 175 0 156 4 q 138 8 130 20 q 122 32 120 42 q 119 53 119 76 q 119 141 141 210 q 163 278 194 332 q 225 386 256 432 q 287 477 309 510 q 331 542 331 555 l 103 555 q 63 555 45 565 q 27 575 21 594 q 15 613 15 644 q 15 675 21 694 q 27 713 40 720 q 61 732 98 732 z"},"S":{"x_min":0,"x_max":583,"ha":583,"o":"m 51 103 q 25 135 25 160 q 25 186 68 228 q 93 252 121 252 q 149 252 199 202 q 213 185 239 170 q 265 154 287 154 q 380 154 380 230 q 380 253 354 268 q 329 284 291 291 q 253 298 209 314 q 165 329 127 350 q 89 371 64 416 q 38 462 38 526 q 38 614 104 680 q 169 745 282 745 q 342 745 392 730 q 441 714 460 698 l 485 679 q 516 650 516 630 q 516 610 492 575 q 458 525 422 525 q 401 525 370 545 q 367 547 358 555 q 350 563 343 568 q 322 581 290 581 q 257 581 236 566 q 214 550 214 522 q 214 495 240 478 q 265 461 303 455 q 341 449 386 436 q 431 424 469 406 q 507 388 532 344 q 558 299 558 234 q 558 169 532 120 q 506 70 464 43 q 383 -10 291 -10 q 244 -10 202 2 q 160 13 134 30 q 81 62 60 92 z"},"}":{"x_min":0,"x_max":381,"ha":381,"o":"m 249 65 l 250 -28 l 250 -47 q 250 -126 203 -176 q 156 -226 86 -226 q 30 -226 20 -196 q 15 -180 15 -154 q 15 -128 20 -113 q 25 -98 37 -92 q 55 -83 72 -83 q 90 -83 93 -82 q 96 -82 102 -76 q 107 -69 107 -57 l 107 -33 l 106 113 q 106 168 121 208 q 136 247 151 260 l 166 272 q 159 278 149 289 q 139 300 122 338 q 106 376 106 420 l 107 590 q 107 623 96 628 q 92 629 80 629 q 67 629 58 631 q 48 633 36 640 q 25 646 20 662 q 15 677 15 702 q 15 727 20 742 q 25 758 36 764 q 54 773 87 773 q 157 773 204 724 q 250 675 250 598 l 251 394 q 251 345 314 345 l 318 345 q 353 345 362 314 q 366 298 366 270 q 366 241 357 224 q 348 206 339 204 q 330 201 317 201 l 311 201 q 251 201 251 153 q 249 129 249 65 z"},"Z":{"x_min":0,"x_max":643,"ha":643,"o":"m 531 171 q 570 171 588 162 q 605 152 612 134 q 618 116 618 88 q 618 60 613 43 q 608 26 601 17 q 594 8 580 4 q 564 -2 529 -2 l 113 -2 q 90 -2 69 10 q 25 35 25 89 q 25 115 37 131 l 347 560 l 117 560 q 93 560 82 562 q 70 563 54 570 q 25 584 25 645 q 25 709 52 723 q 67 731 78 732 q 90 734 114 734 l 516 734 q 539 734 560 722 q 581 710 592 690 q 604 670 604 643 q 604 616 592 600 l 282 171 z"},"x":{"x_min":0,"x_max":567,"ha":567,"o":"m 405 264 l 516 152 q 552 116 552 90 q 552 65 516 30 q 480 -6 455 -6 q 430 -6 394 30 l 284 141 l 173 30 q 137 -6 112 -6 q 88 -6 52 30 q 15 65 15 90 q 15 116 51 152 l 162 264 l 51 376 q 15 412 15 438 q 15 463 52 499 q 88 535 112 535 q 137 535 173 499 l 284 387 l 394 499 q 430 535 455 535 q 480 535 516 499 q 552 463 552 438 q 552 412 516 376 z"},")":{"x_min":0,"x_max":384,"ha":384,"o":"m 162 -10 q 204 89 204 274 q 204 365 192 440 q 179 514 160 557 q 119 646 80 646 l 74 646 q 47 646 35 652 q 15 663 15 708 q 15 752 31 764 q 47 775 79 775 q 150 775 205 726 q 260 678 292 600 q 354 447 354 272 q 354 96 289 -58 q 257 -133 202 -180 q 148 -228 80 -228 q 29 -228 20 -200 q 15 -187 15 -164 q 15 -141 20 -127 q 24 -113 34 -107 q 45 -101 54 -100 q 62 -99 81 -99 q 100 -99 122 -76 q 143 -54 162 -10 z"},"&":{"x_min":0,"x_max":748,"ha":748,"o":"m 646 -1 q 559 -1 474 44 q 379 -8 282 -8 q 25 -8 25 206 q 25 317 140 412 q 100 501 100 573 q 100 673 160 721 q 220 769 321 769 q 422 769 474 721 q 526 673 526 590 q 526 520 469 464 q 427 422 351 371 q 410 293 479 239 q 507 282 518 327 q 528 371 608 371 q 642 371 660 362 q 677 353 680 344 q 682 334 681 319 q 677 243 619 168 q 634 165 647 165 q 725 165 725 86 q 725 31 707 15 q 689 -1 646 -1 z m 258 585 q 258 549 275 504 q 322 534 346 554 q 369 574 369 592 q 369 636 320 636 q 258 636 258 585 z m 289 140 q 314 140 334 144 q 276 196 224 268 q 201 239 201 208 q 201 140 289 140 z"},"_":{"x_min":0,"x_max":826,"ha":826,"o":"m 76 -228 q 28 -228 20 -199 q 15 -184 15 -159 q 15 -134 20 -119 q 24 -104 34 -98 q 51 -90 77 -90 l 750 -90 q 798 -90 806 -120 q 811 -135 811 -160 q 811 -184 806 -199 q 802 -214 792 -220 q 777 -228 749 -228 z"},"v":{"x_min":0,"x_max":638,"ha":638,"o":"m 571 515 q 623 484 623 449 q 623 429 603 394 l 396 39 q 386 22 364 8 q 342 -5 320 -5 q 299 -5 280 6 q 260 16 252 27 l 243 38 l 35 394 q 15 427 15 448 q 15 484 67 515 q 105 537 127 537 q 149 537 162 524 q 174 510 188 483 l 319 231 l 450 483 q 461 502 466 510 q 472 519 484 528 q 496 536 516 536 q 536 536 571 515 z"},"(":{"x_min":0,"x_max":384,"ha":384,"o":"m 349 -220 q 332 -228 304 -228 q 236 -228 182 -180 q 127 -133 95 -58 q 30 96 30 272 q 30 447 92 600 q 124 678 179 726 q 234 775 305 775 q 335 775 348 768 q 369 755 369 710 q 369 663 351 654 q 337 646 310 646 l 304 646 q 265 646 224 557 q 205 514 192 440 q 180 365 180 273 q 180 181 192 107 q 204 33 222 -10 q 241 -54 262 -76 q 284 -99 303 -99 q 322 -99 330 -100 q 339 -101 350 -107 q 360 -113 364 -127 q 369 -141 369 -164 q 369 -187 364 -200 q 360 -214 349 -220 z"},"C":{"x_min":0,"x_max":679,"ha":679,"o":"m 498 192 l 516 205 q 550 225 564 225 q 595 225 631 169 q 653 134 653 113 q 653 92 640 78 q 626 64 608 53 q 590 42 574 32 q 557 22 506 6 q 455 -10 408 -10 q 360 -10 312 2 q 263 15 212 44 q 160 74 119 116 q 78 159 52 226 q 25 292 25 370 q 25 448 51 512 q 77 575 118 616 q 158 658 210 686 q 308 740 407 740 q 454 740 502 726 q 551 711 576 696 l 600 682 q 618 671 628 664 q 654 643 654 616 q 654 590 633 561 q 594 507 563 507 q 545 507 512 529 q 470 563 400 563 q 335 563 272 518 q 242 496 222 456 q 202 416 202 366 q 202 315 222 275 q 242 235 273 212 q 334 168 400 168 q 431 168 458 176 q 486 184 498 192 z"},"W":{"x_min":0,"x_max":999,"ha":999,"o":"m 917 729 q 984 705 984 665 q 984 652 972 616 l 780 61 q 778 54 773 44 q 768 34 746 18 q 725 1 696 1 q 666 1 644 18 q 623 34 616 50 l 499 395 q 388 67 386 61 q 384 55 377 44 q 370 33 361 24 q 338 1 306 1 q 274 1 254 16 q 233 31 226 46 l 219 61 l 26 616 q 15 649 15 665 q 15 705 82 728 q 111 738 134 738 q 158 738 170 722 q 183 706 193 673 l 303 339 l 412 668 q 426 710 463 726 q 479 733 504 733 q 530 733 552 716 q 574 700 580 684 l 695 337 l 805 673 q 813 696 818 707 q 823 718 836 728 q 850 739 870 739 q 890 739 917 729 z"},"A":{"x_min":0,"x_max":765,"ha":765,"o":"m 463 681 l 733 123 q 750 89 750 72 q 750 36 692 7 q 658 -10 638 -10 q 619 -10 606 -1 q 594 8 588 18 q 583 28 573 48 l 521 156 l 244 156 l 192 48 q 182 28 176 19 q 171 10 158 0 q 146 -9 126 -9 q 107 -9 73 8 q 15 36 15 72 q 15 89 32 123 l 302 682 q 313 705 336 719 q 358 733 383 733 q 437 733 463 681 z m 382 441 l 316 304 l 449 304 z"},"f":{"x_min":0,"x_max":450,"ha":450,"o":"m 348 526 q 417 526 429 488 q 435 469 435 438 q 435 407 428 388 q 422 370 408 362 q 387 350 347 350 l 283 354 l 283 86 q 283 48 274 30 q 264 11 244 5 q 225 -1 194 -1 q 163 -1 144 6 q 126 12 118 26 q 110 41 108 53 q 107 65 107 88 l 107 353 l 71 353 q 45 355 34 365 q 15 384 15 438 q 15 520 74 520 l 107 520 l 107 573 q 107 650 162 712 q 217 775 321 775 q 344 775 356 774 q 367 772 382 764 q 409 751 409 687 q 409 639 392 618 q 378 602 348 600 q 339 600 320 600 q 283 600 283 575 l 283 520 z"},"w":{"x_min":0,"x_max":793,"ha":793,"o":"m 714 523 q 778 495 778 454 q 778 437 762 400 q 746 362 735 334 l 625 66 q 610 22 575 4 q 560 -3 537 -3 q 514 -3 492 14 q 471 32 464 50 l 456 67 q 448 87 397 223 q 387 199 368 144 q 348 90 342 76 q 337 63 336 58 q 334 54 327 42 q 320 30 311 21 q 287 -3 256 -3 q 225 -3 204 14 q 183 32 176 50 l 25 418 q 15 448 15 457 q 15 497 72 520 q 104 533 124 533 q 144 533 156 524 q 169 516 174 508 q 179 499 182 490 q 199 450 253 302 l 312 464 q 318 484 334 499 q 363 528 393 528 q 423 528 444 512 q 466 496 474 480 l 482 463 q 532 323 541 303 l 602 469 q 626 533 674 533 q 693 533 714 523 z"},"-":{"x_min":0,"x_max":433,"ha":433,"o":"m 335 139 l 97 139 q 41 139 30 173 q 25 191 25 219 q 25 247 31 264 q 37 281 50 288 q 68 297 98 297 l 336 297 q 392 297 402 264 q 408 246 408 218 q 408 190 402 172 q 397 155 385 148 q 367 139 335 139 z"},"E":{"x_min":0,"x_max":638,"ha":638,"o":"m 217 177 l 525 177 q 548 177 560 176 q 571 174 586 166 q 613 152 613 88 q 613 18 576 6 q 559 0 524 0 l 128 0 q 58 0 46 38 q 40 54 40 89 l 40 645 q 40 696 59 714 q 78 733 131 733 l 525 733 q 548 733 560 732 q 571 730 586 722 q 613 708 613 644 q 613 574 576 562 q 559 556 524 556 l 217 556 l 217 455 l 415 455 q 438 455 450 454 q 461 452 476 444 q 503 430 503 366 q 503 296 465 284 q 448 278 413 278 l 217 278 z"},"s":{"x_min":0,"x_max":489,"ha":489,"o":"m 44 47 q 25 59 25 85 q 25 111 63 164 q 74 181 98 181 q 123 181 165 156 q 207 132 241 132 q 302 132 302 156 q 302 175 235 184 q 172 193 110 231 q 81 249 62 288 q 43 326 43 379 q 43 537 260 537 q 331 537 406 503 q 441 487 441 463 q 441 439 419 404 q 397 369 374 369 q 362 369 330 384 q 297 399 259 399 q 200 399 200 377 q 200 347 268 338 q 334 331 396 300 q 425 286 444 252 q 464 217 464 165 q 464 113 444 76 q 425 40 390 22 q 326 -9 230 -9 q 133 -9 44 47 z"},">":{"x_min":0,"x_max":627,"ha":627,"o":"m 571 414 q 611 394 611 344 q 611 294 572 275 l 145 21 q 94 -12 63 14 q 49 26 34 50 q 14 83 14 98 q 14 113 20 124 q 31 141 63 160 l 374 344 l 64 528 q 46 539 37 546 q 15 565 15 587 q 15 607 32 635 q 63 687 90 687 q 114 687 144 668 z"},"l":{"x_min":0,"x_max":327,"ha":327,"o":"m 40 687 q 40 710 42 722 q 43 733 50 748 q 64 775 128 775 q 189 775 204 748 q 212 733 214 721 q 215 709 215 686 l 215 223 q 215 187 221 178 q 227 168 248 168 q 268 168 275 166 q 282 165 292 158 q 312 145 312 87 q 312 24 292 10 q 266 -8 168 4 q 91 14 68 55 q 40 104 40 211 z"},"\\":{"x_min":0,"x_max":528,"ha":528,"o":"m 351 -8 l 28 665 q 15 692 15 707 q 15 739 71 766 q 106 782 122 782 q 137 782 145 778 q 153 775 160 767 q 167 757 179 734 l 499 66 q 513 29 513 14 q 513 -2 501 -14 q 489 -26 456 -41 q 424 -56 404 -56 q 384 -56 373 -44 q 362 -33 351 -8 z"},"e":{"x_min":0,"x_max":573,"ha":573,"o":"m 450 206 l 213 206 q 213 178 246 159 q 279 140 312 140 q 370 140 403 152 l 414 156 q 438 167 454 167 q 486 167 509 122 q 522 95 522 76 q 522 -13 309 -13 q 235 -13 178 12 q 120 38 88 80 q 25 161 25 261 q 25 387 106 462 q 188 538 310 538 q 449 538 514 440 q 548 388 548 326 q 548 265 518 236 q 487 206 450 206 z m 337 297 q 375 297 375 329 q 375 352 358 366 q 340 380 308 380 q 275 380 243 354 q 211 327 211 297 z"},"m":{"x_min":0,"x_max":851,"ha":851,"o":"m 212 457 q 259 528 325 528 q 427 528 477 441 q 488 456 504 472 q 519 489 553 508 q 587 528 623 528 q 703 528 757 466 q 811 405 811 263 l 811 88 q 811 65 810 54 q 808 42 800 27 q 787 0 723 0 q 660 0 646 28 q 639 43 638 54 q 636 66 636 89 l 636 264 q 636 351 574 351 q 539 351 526 328 q 514 305 514 263 l 514 88 q 514 64 512 53 q 511 42 503 27 q 489 0 425 0 q 362 0 348 28 q 341 43 340 54 q 338 66 338 89 l 338 264 q 338 351 276 351 q 216 351 216 264 l 216 87 q 216 64 214 52 q 213 41 205 26 q 190 0 127 0 q 64 0 50 27 q 43 42 42 53 q 40 64 40 88 l 40 440 q 40 463 42 474 q 43 486 51 500 q 66 527 122 527 q 178 527 195 509 q 212 491 212 457 z"},"#":{"x_min":0,"x_max":749,"ha":749,"o":"m 631 541 l 682 541 q 701 541 710 540 q 718 538 726 529 q 734 520 734 502 q 734 485 730 464 q 727 444 715 429 q 703 414 692 412 q 681 410 659 410 l 609 410 l 591 300 l 642 300 q 661 300 670 298 q 678 297 686 288 q 694 279 694 262 q 694 244 691 227 q 688 210 682 196 q 675 182 664 176 q 648 168 619 168 l 569 168 q 559 106 557 91 l 555 80 q 551 58 548 49 q 546 40 538 27 q 522 4 464 4 q 406 4 406 41 q 406 42 414 93 l 426 168 l 277 168 q 267 106 265 91 l 263 80 q 259 58 256 49 q 254 40 246 27 q 230 4 172 4 q 114 4 114 41 q 114 42 122 93 l 134 168 l 68 168 q 26 168 18 186 q 15 194 15 210 q 15 225 18 246 q 22 266 34 281 q 47 296 58 298 q 69 300 91 300 l 156 300 l 174 410 l 108 410 q 65 410 58 427 q 55 436 55 451 q 55 466 58 486 q 62 507 74 522 q 87 537 98 539 q 109 541 131 541 l 196 541 l 213 644 q 214 650 216 664 q 217 677 218 682 q 220 688 223 698 q 226 708 232 712 q 237 716 246 722 q 260 731 297 731 q 334 731 348 720 q 363 710 363 689 q 363 686 358 654 l 339 541 l 488 541 l 505 644 q 506 650 508 664 q 509 677 510 682 q 512 688 515 698 q 518 708 524 712 q 529 716 538 722 q 552 731 589 731 q 626 731 640 720 q 655 710 655 689 q 655 686 650 654 z m 448 300 l 466 410 l 318 410 l 299 300 z"},",":{"x_min":0,"x_max":238,"ha":238,"o":"m 213 91 q 213 70 210 52 q 201 -33 154 -96 q 107 -159 44 -159 q 37 -159 32 -148 q 26 -138 26 -122 q 26 -105 30 -95 q 35 -85 42 -82 q 49 -80 56 -74 q 64 -69 77 -48 q 90 -27 92 0 q 60 4 42 22 q 25 39 26 78 q 26 118 28 130 q 29 141 38 157 q 46 173 66 180 q 86 186 130 186 q 174 186 194 166 q 213 147 213 91 z"},"n":{"x_min":0,"x_max":606,"ha":606,"o":"m 333 527 q 433 527 500 450 q 566 374 566 264 l 566 88 q 566 65 564 54 q 563 42 556 28 q 542 1 478 1 q 407 1 396 38 q 390 55 390 89 l 390 265 q 390 306 366 329 q 343 352 304 352 q 264 352 240 328 q 215 304 215 265 l 215 88 q 215 65 214 54 q 212 42 204 28 q 191 1 127 1 q 64 1 50 28 q 43 43 42 54 q 40 66 40 89 l 40 443 q 40 465 42 476 q 43 488 51 502 q 65 527 128 527 q 189 527 203 504 q 213 487 213 463 q 217 470 231 483 q 245 496 258 504 q 292 527 333 527 z"},"h":{"x_min":0,"x_max":605,"ha":605,"o":"m 332 525 q 432 525 498 449 q 565 373 565 263 l 565 87 q 565 64 564 52 q 562 41 554 26 q 541 0 477 0 q 416 0 401 26 q 393 41 392 53 q 390 65 390 89 l 390 264 q 390 305 367 328 q 344 351 308 351 q 273 351 246 330 q 219 308 215 281 l 215 87 q 215 64 214 52 q 212 41 204 26 q 191 0 127 0 q 64 0 50 27 q 43 42 42 53 q 40 64 40 88 l 40 686 q 40 709 42 720 q 43 732 50 746 q 64 773 128 773 q 191 773 204 746 q 212 731 214 720 q 215 708 215 685 l 215 464 q 265 525 332 525 z"},"z":{"x_min":0,"x_max":586,"ha":586,"o":"m 303 176 l 474 176 q 514 176 532 166 q 549 156 555 137 q 561 118 561 87 q 561 56 555 37 q 549 18 534 10 q 519 3 508 2 q 496 0 473 0 l 112 0 q 77 0 51 26 q 25 52 25 88 q 25 124 51 150 q 77 175 131 223 q 185 271 229 310 q 273 348 277 352 l 136 352 q 79 352 64 371 q 47 393 47 429 q 47 465 52 482 q 57 500 64 508 q 71 517 84 522 q 101 527 136 527 l 461 527 q 496 527 522 502 q 548 477 548 440 q 548 402 518 373 q 488 344 303 176 z"},"B":{"x_min":0,"x_max":646,"ha":646,"o":"m 562 393 q 621 323 621 236 q 619 136 552 68 q 486 1 391 1 l 128 1 q 58 1 46 39 q 40 56 40 91 l 40 646 q 40 670 42 681 q 43 692 51 707 q 65 734 129 734 l 381 734 q 473 734 535 670 q 600 605 600 514 q 600 448 562 393 z m 444 246 q 444 270 438 284 q 433 298 420 304 q 400 312 364 312 q 328 312 310 326 q 292 340 292 384 q 292 427 310 441 q 329 455 372 455 q 412 455 420 476 q 423 487 423 512 q 423 537 406 547 q 390 557 357 557 l 217 557 l 217 178 l 381 178 q 444 178 444 246 z"},"K":{"x_min":0,"x_max":639,"ha":639,"o":"m 354 368 q 507 221 571 147 q 604 110 604 84 q 604 59 564 24 q 524 -10 498 -10 q 473 -10 437 32 l 217 283 l 217 88 q 217 64 216 53 q 214 42 206 27 q 192 0 128 0 q 58 0 46 38 q 40 54 40 89 l 40 645 q 40 668 42 680 q 43 691 51 706 q 65 733 129 733 q 199 733 212 696 q 217 679 217 644 l 217 453 q 353 606 437 704 q 472 745 498 745 q 524 745 564 710 q 604 676 604 650 q 604 625 574 590 q 516 523 394 406 z"},"R":{"x_min":0,"x_max":631,"ha":631,"o":"m 601 124 q 616 88 616 72 q 616 34 554 8 q 522 -6 502 -6 q 483 -6 470 4 q 458 13 452 23 q 442 42 374 204 l 343 202 l 217 202 l 217 89 q 217 66 216 54 q 214 43 206 28 q 192 1 128 1 q 58 1 46 38 q 40 55 40 90 l 40 645 q 40 668 42 680 q 43 691 51 706 q 65 733 129 733 l 345 733 q 433 733 516 669 q 556 638 582 585 q 608 532 608 467 q 608 354 533 281 q 555 228 601 124 z m 217 379 l 345 379 q 374 379 403 401 q 432 423 432 467 q 432 511 403 534 q 374 556 343 556 l 217 556 z"},"T":{"x_min":0,"x_max":731,"ha":731,"o":"m 88 734 l 644 734 q 676 734 691 726 q 706 719 711 703 q 716 687 716 661 q 716 635 711 620 q 706 604 694 598 q 676 589 643 589 l 452 589 l 452 86 q 452 63 450 52 q 449 41 442 26 q 434 12 415 6 q 396 0 365 0 q 334 0 316 6 q 297 12 290 26 q 282 41 280 52 q 279 64 279 87 l 279 589 l 87 589 q 55 589 40 596 q 25 604 20 620 q 15 636 15 662 q 15 688 20 704 q 25 719 37 725 q 55 734 88 734 z"},"P":{"x_min":0,"x_max":632,"ha":632,"o":"m 514 266 q 431 202 342 202 l 217 202 l 217 89 q 217 66 216 54 q 214 43 206 28 q 192 1 128 1 q 58 1 46 38 q 40 55 40 90 l 40 645 q 40 668 42 680 q 43 691 51 706 q 65 733 129 733 l 343 733 q 431 733 514 669 q 555 638 581 585 q 607 532 607 467 q 607 402 581 350 q 555 297 514 266 z m 342 556 l 217 556 l 217 379 l 343 379 q 373 379 402 401 q 431 423 431 467 q 431 511 402 534 q 373 556 342 556 z"},"|":{"x_min":0,"x_max":217,"ha":217,"o":"m 40 687 q 40 755 69 767 q 84 773 108 773 q 133 773 148 767 q 163 761 169 746 q 177 727 177 686 l 177 -146 q 177 -214 148 -226 q 133 -232 108 -232 q 84 -232 69 -226 q 54 -220 48 -205 q 40 -185 40 -144 z"},"t":{"x_min":0,"x_max":449,"ha":449,"o":"m 346 350 l 281 354 l 281 216 q 281 189 290 177 q 298 165 322 165 q 345 165 358 164 q 370 162 384 154 q 407 141 407 87 q 407 24 379 10 q 364 3 352 2 q 341 0 319 0 q 215 0 161 47 q 107 94 107 206 l 107 354 q 88 351 66 351 q 44 351 30 368 q 15 385 15 426 q 15 467 20 486 q 25 504 34 512 q 50 525 74 525 l 107 521 l 107 624 q 107 647 108 658 q 110 669 118 682 q 131 707 195 707 q 263 707 276 670 q 281 654 281 619 l 281 521 q 325 525 348 525 q 370 525 382 524 q 393 522 408 514 q 434 501 434 437 q 434 374 407 360 q 392 353 380 352 q 369 350 346 350 z"},"M":{"x_min":0,"x_max":870,"ha":870,"o":"m 819 705 q 827 690 828 678 q 830 666 830 643 l 830 88 q 830 19 792 7 q 773 1 744 1 q 715 1 698 6 q 681 11 672 18 q 663 25 658 38 q 653 55 653 90 l 653 425 q 628 394 580 326 q 532 259 519 242 q 506 225 501 218 q 496 212 476 200 q 457 189 434 189 q 412 189 394 200 q 375 210 367 220 l 359 231 q 339 256 280 338 q 221 419 216 425 l 216 88 q 216 65 214 54 q 213 42 205 28 q 190 1 127 1 q 66 1 51 28 q 43 42 42 54 q 40 66 40 90 l 40 645 q 40 668 42 680 q 43 691 51 706 q 66 732 129 732 q 156 732 176 726 q 195 719 201 712 l 207 706 l 434 408 q 604 633 661 705 q 678 732 742 732 q 805 732 819 705 z"},"j":{"x_min":0,"x_max":252,"ha":252,"o":"m 50 746 q 64 772 127 772 q 187 772 202 746 q 209 733 210 722 q 212 711 212 689 l 212 683 q 212 661 210 650 q 209 639 201 625 q 193 611 174 606 q 156 600 125 600 q 94 600 76 606 q 58 612 50 626 q 43 641 42 652 q 40 664 40 687 q 40 710 42 721 q 43 732 50 746 z m 212 443 l 212 31 q 212 -86 131 -156 q 50 -226 -47 -226 q -70 -226 -81 -224 q -92 -223 -106 -216 q -132 -202 -132 -143 q -132 -84 -110 -69 q -89 -54 -52 -54 q -16 -54 12 -34 q 40 -14 40 38 l 40 450 q 40 485 50 502 q 59 518 78 524 q 96 530 127 530 q 158 530 176 524 q 194 518 202 504 q 209 489 210 478 q 212 466 212 443 z"},"i":{"x_min":0,"x_max":255,"ha":255,"o":"m 40 439 q 40 462 42 474 q 43 485 50 500 q 64 526 128 526 q 176 526 196 509 q 213 495 214 466 q 215 456 215 437 l 215 87 q 215 64 214 52 q 212 41 204 26 q 191 0 127 0 q 64 0 50 27 q 43 42 42 53 q 40 64 40 88 z m 50 746 q 64 773 128 773 q 191 773 204 746 q 212 731 214 720 q 215 708 215 685 q 215 662 214 650 q 212 639 204 624 q 197 610 178 604 q 159 598 128 598 q 96 598 77 604 q 58 610 50 625 q 43 640 42 652 q 40 663 40 686 q 40 709 42 720 q 43 732 50 746 z"},"y":{"x_min":0,"x_max":604,"ha":604,"o":"m 530 521 q 589 495 589 458 q 589 440 581 424 q 573 408 573 407 l 311 -179 q 303 -198 298 -208 q 292 -218 280 -227 q 268 -236 250 -236 q 232 -236 197 -221 q 138 -195 138 -159 q 138 -135 234 70 l 35 405 q 15 438 15 454 q 15 486 69 518 q 103 538 122 538 q 141 538 153 530 q 165 522 170 514 q 176 505 226 420 q 275 336 320 263 q 325 279 374 386 q 423 494 426 501 q 430 508 438 518 q 451 535 474 535 q 498 535 530 521 z"},"@":{"x_min":0,"x_max":908,"ha":908,"o":"m 796 33 q 717 -41 622 -41 q 556 -41 512 -1 q 468 39 468 108 q 468 116 470 132 q 437 96 379 96 q 321 96 276 146 q 230 195 230 265 q 230 354 296 416 q 362 477 424 477 q 485 477 509 437 q 514 457 528 468 q 543 478 576 478 q 610 478 622 468 q 635 457 635 444 q 635 430 633 414 l 599 158 q 592 117 592 105 q 592 93 600 88 q 607 84 623 84 q 639 84 654 88 q 669 92 688 104 q 708 117 723 137 q 759 185 759 265 q 759 345 733 398 q 707 451 662 482 q 570 544 440 544 q 311 544 230 470 q 150 397 150 271 q 150 145 212 70 q 275 -5 406 -5 l 425 -5 q 449 -5 458 -16 q 468 -28 468 -59 q 468 -90 464 -104 q 459 -117 448 -122 q 434 -130 405 -130 q 229 -130 127 -22 q 25 87 25 270 q 25 392 83 484 q 141 577 234 622 q 326 668 428 668 q 529 668 608 644 q 688 619 750 570 q 812 522 848 444 q 883 365 883 278 q 883 190 859 130 q 835 69 796 33 z m 486 286 l 486 292 q 486 315 472 332 q 457 350 429 350 q 401 350 381 330 q 361 311 358 286 l 358 279 q 358 256 374 240 q 390 223 416 223 q 442 223 462 242 q 483 262 486 286 z"},".":{"x_min":0,"x_max":237,"ha":237,"o":"m 195 165 q 212 148 212 95 l 212 91 q 212 67 210 56 q 209 44 200 28 q 185 -1 124 -1 q 64 -1 44 18 q 25 37 25 90 l 25 94 q 25 117 26 129 q 28 141 36 156 q 51 186 112 186 q 172 186 195 165 z"},"X":{"x_min":0,"x_max":741,"ha":741,"o":"m 491 371 l 692 150 q 726 112 726 86 q 726 60 688 25 q 649 -10 622 -10 q 596 -10 561 30 l 371 248 l 181 30 q 145 -10 120 -10 q 94 -10 54 26 q 15 61 15 86 q 15 111 50 150 l 251 371 l 50 592 q 15 629 15 655 q 15 681 54 716 q 93 752 120 752 q 146 752 181 712 l 371 494 l 561 712 q 597 752 622 752 q 648 752 687 717 q 726 682 726 655 q 726 628 692 592 z"},"*":{"x_min":0,"x_max":503,"ha":503,"o":"m 480 579 q 488 552 488 536 q 488 519 478 506 q 468 493 457 488 q 446 483 424 475 l 382 462 l 415 416 l 423 404 q 436 382 436 371 q 436 342 397 314 q 358 286 341 286 q 324 286 313 293 q 298 303 281 327 l 252 367 l 215 317 q 193 284 170 284 q 148 284 108 313 q 67 342 67 370 q 67 387 88 416 l 121 462 l 79 475 q 43 482 25 504 q 15 517 15 535 q 15 553 22 575 q 44 641 80 641 q 94 641 107 636 q 120 632 120 632 l 171 616 l 171 668 q 171 702 180 718 q 188 734 206 739 q 223 744 252 744 q 281 744 298 738 q 316 733 323 720 q 333 701 333 663 l 333 616 l 382 632 q 414 642 424 642 q 459 642 480 579 z"},"Y":{"x_min":0,"x_max":686,"ha":686,"o":"m 622 719 q 671 685 671 653 q 671 634 648 600 l 432 277 l 432 86 q 432 63 430 52 q 429 40 421 25 q 413 10 394 4 q 375 -2 343 -2 q 311 -2 292 4 q 273 10 265 26 q 257 41 256 52 q 254 64 254 88 l 254 277 l 38 600 q 15 634 15 653 q 15 685 59 714 q 103 744 122 744 q 141 744 152 736 q 169 725 188 695 l 343 447 l 498 695 q 517 725 531 734 q 545 744 564 744 q 582 744 622 719 z"},"c":{"x_min":0,"x_max":517,"ha":517,"o":"m 396 211 q 426 211 469 158 q 492 129 492 106 q 492 68 437 35 q 380 -5 297 -5 q 204 -5 118 62 q 77 94 51 148 q 25 201 25 266 q 25 330 51 382 q 77 435 118 467 q 201 533 295 533 q 333 533 369 522 q 405 512 422 502 l 438 492 q 456 480 466 473 q 492 453 492 428 q 492 402 471 370 q 435 315 402 315 q 383 315 348 337 q 330 354 296 354 q 263 354 234 330 q 205 306 205 264 q 205 221 233 198 q 261 174 292 174 q 324 174 352 192 q 379 211 396 211 z"},"!":{"x_min":0,"x_max":267,"ha":267,"o":"m 227 107 l 227 91 q 227 67 226 56 q 224 44 216 28 q 200 -1 140 -1 q 79 -1 60 18 q 40 38 40 94 q 40 133 50 152 q 60 172 80 179 q 101 186 144 186 q 188 186 208 167 q 227 148 227 107 z m 45 341 l 45 658 q 45 679 46 690 q 48 700 56 713 q 64 726 83 732 q 102 737 134 737 q 166 737 185 732 q 204 726 212 712 q 219 699 220 688 q 222 678 222 657 l 222 340 q 222 319 220 309 q 219 299 211 286 q 203 274 184 269 q 165 264 133 264 q 101 264 82 269 q 63 274 56 287 q 48 300 46 310 q 45 320 45 341 z"},"/":{"x_min":0,"x_max":526,"ha":526,"o":"m 176 -8 q 168 -25 164 -33 q 159 -41 148 -48 q 138 -56 121 -56 q 104 -56 71 -41 q 38 -26 26 -14 q 15 -3 15 11 q 15 25 27 61 l 349 734 q 368 772 383 778 q 391 782 406 782 q 422 782 457 766 q 511 740 511 709 q 511 696 497 659 z"},"[":{"x_min":0,"x_max":348,"ha":348,"o":"m 202 -82 l 276 -82 q 301 -82 313 -90 q 333 -102 333 -155 q 333 -206 315 -217 q 300 -226 275 -226 l 121 -226 q 63 -226 50 -200 q 40 -179 40 -139 l 40 687 q 40 726 48 744 q 57 761 75 767 q 93 773 122 773 l 276 773 q 301 773 313 766 q 333 753 333 700 q 333 649 315 638 q 300 629 275 629 l 202 629 z"},"6":{"x_min":0,"x_max":560,"ha":560,"o":"m 535 224 q 535 123 462 55 q 390 -13 287 -13 q 157 -13 91 70 q 25 154 25 286 q 25 477 134 605 q 242 733 430 733 q 468 733 486 724 q 503 714 509 695 q 515 676 515 647 q 515 618 510 601 q 505 584 498 575 q 491 566 478 562 q 461 556 420 556 q 379 556 340 542 q 302 528 280 508 q 236 467 226 434 l 221 420 q 258 437 295 437 q 394 437 464 372 q 535 306 535 224 z m 283 151 q 360 151 360 218 q 360 241 342 261 q 325 281 286 281 q 248 281 228 262 q 207 244 207 225 q 207 206 210 196 q 212 186 219 174 q 233 151 283 151 z"},"r":{"x_min":0,"x_max":457,"ha":457,"o":"m 368 346 q 350 346 334 354 q 317 362 290 362 q 263 362 240 343 q 216 324 216 297 l 216 87 q 216 64 214 52 q 213 41 205 26 q 190 0 127 0 q 79 0 58 17 q 42 31 40 60 q 40 70 40 89 l 40 440 q 40 463 42 474 q 43 486 50 500 q 64 527 128 527 q 188 527 203 504 q 214 488 214 471 q 219 478 228 488 q 238 498 269 515 q 300 532 324 532 q 347 532 363 530 q 379 527 398 521 q 417 515 430 500 q 442 486 442 454 q 442 422 423 384 q 404 346 368 346 z"},"2":{"x_min":0,"x_max":609,"ha":609,"o":"m 506 176 q 547 176 564 166 q 582 157 588 138 q 594 118 594 86 q 594 55 588 36 q 581 17 566 10 q 544 -2 504 -2 l 113 -2 q 77 -2 51 25 q 25 52 25 88 q 25 142 62 188 q 100 233 153 266 q 206 298 259 330 q 312 361 350 401 q 387 441 387 486 q 387 495 380 512 q 373 528 364 538 q 356 549 338 558 q 320 567 288 567 q 256 567 232 544 q 209 520 206 497 l 202 474 l 202 468 q 202 446 200 435 q 199 424 191 410 q 176 386 113 386 q 43 386 30 424 q 25 440 25 475 q 25 579 100 662 q 174 744 294 744 q 415 744 490 660 q 565 577 565 470 q 565 413 540 362 q 515 311 480 280 q 406 214 348 191 l 323 181 l 323 176 z"},"{":{"x_min":0,"x_max":381,"ha":381,"o":"m 130 -28 l 131 65 q 131 129 129 153 q 129 201 69 201 l 63 201 q 29 201 20 232 q 15 248 15 273 q 15 298 20 314 q 24 330 32 336 q 45 345 62 345 l 66 345 q 129 345 129 394 q 130 577 130 598 q 130 675 176 724 q 223 773 293 773 q 326 773 341 766 q 356 758 361 742 q 366 727 366 702 q 366 677 361 662 q 356 646 344 640 q 325 629 294 629 q 274 629 274 590 l 274 420 q 274 376 259 339 q 244 302 230 287 l 215 272 q 221 269 234 254 q 246 239 254 222 q 274 177 274 96 q 273 15 273 -33 l 273 -57 q 273 -69 278 -76 q 285 -83 298 -83 q 312 -83 322 -84 q 331 -86 344 -92 q 366 -103 366 -154 q 366 -206 343 -217 q 325 -226 294 -226 q 224 -226 177 -176 q 130 -126 130 -47 z"},"9":{"x_min":0,"x_max":560,"ha":560,"o":"m 25 508 q 25 609 97 677 q 169 745 272 745 q 403 745 469 662 q 535 578 535 446 q 535 255 427 127 q 319 -1 132 -1 l 126 -1 q 88 -1 72 9 q 44 26 44 88 q 44 158 82 170 q 99 176 140 176 q 181 176 220 190 q 258 204 279 224 q 322 265 334 298 l 339 312 q 301 295 264 295 q 166 295 96 360 q 25 426 25 508 z m 276 581 q 199 581 199 514 q 199 491 216 471 q 234 451 273 451 q 312 451 332 470 q 353 488 353 506 q 353 525 350 536 q 348 546 340 558 q 325 581 276 581 z"}," ":{"x_min":0,"x_max":253,"ha":253,"o":""},"I":{"x_min":0,"x_max":257,"ha":257,"o":"m 40 645 q 40 668 42 680 q 43 691 51 706 q 65 733 129 733 q 199 733 212 696 q 217 679 217 644 l 217 88 q 217 64 216 53 q 214 42 206 27 q 192 0 128 0 q 58 0 46 38 q 40 54 40 89 z"},"H":{"x_min":0,"x_max":699,"ha":699,"o":"m 654 696 q 659 679 659 644 l 659 89 q 659 66 658 54 q 656 43 648 28 q 634 1 570 1 q 500 1 488 38 q 482 55 482 90 l 482 293 l 217 293 l 217 89 q 217 66 216 54 q 214 43 206 28 q 192 1 128 1 q 58 1 46 38 q 40 55 40 90 l 40 645 q 40 668 42 680 q 43 691 51 706 q 65 733 129 733 q 199 733 212 696 q 217 679 217 644 l 217 440 l 482 440 l 482 645 q 482 668 484 680 q 485 691 493 706 q 501 721 520 727 q 539 733 568 733 q 597 733 614 728 q 631 723 640 716 q 649 709 654 696 z"},"4":{"x_min":0,"x_max":592,"ha":592,"o":"m 552 645 l 552 89 q 552 50 542 32 q 533 13 514 7 q 494 1 465 1 q 436 1 419 6 q 402 11 393 18 q 384 25 380 38 q 374 55 374 90 l 374 212 l 103 212 q 33 212 20 250 q 15 266 15 293 q 15 320 18 333 l 101 668 q 107 691 112 703 q 116 715 130 726 q 143 737 164 737 q 185 737 210 730 q 280 711 280 666 q 280 650 273 624 q 272 622 272 621 l 211 377 l 374 377 l 374 650 q 374 673 376 684 q 377 695 385 709 q 393 723 412 728 q 432 734 464 734 q 495 734 514 728 q 533 721 541 706 q 549 692 550 680 q 552 668 552 645 z"},"~":{"x_min":0,"x_max":651,"ha":651,"o":"m 526 360 q 573 328 573 301 q 573 286 563 270 q 553 253 549 246 q 545 240 530 223 q 515 206 497 193 q 479 180 448 170 q 418 159 382 159 q 345 159 316 174 q 286 190 266 206 q 247 222 236 222 q 224 222 216 218 q 203 211 203 206 q 172 158 146 158 q 119 158 84 188 q 49 217 49 236 q 49 252 64 276 q 78 299 93 316 q 108 332 126 344 q 174 378 240 378 q 270 378 296 368 q 321 359 334 348 q 368 317 383 317 q 408 317 416 328 l 419 332 q 450 378 475 378 q 500 378 526 360 z"},"D":{"x_min":0,"x_max":704,"ha":704,"o":"m 129 734 l 314 733 q 459 733 569 628 q 679 524 679 372 q 679 219 572 110 q 464 1 311 1 l 128 1 q 67 1 52 26 q 40 47 40 90 l 40 646 q 40 670 42 681 q 43 692 51 707 q 65 734 129 734 z m 313 556 l 217 556 l 217 178 l 314 178 q 386 178 444 232 q 502 285 502 366 q 502 447 446 502 q 389 556 313 556 z"},"^":{"x_min":0,"x_max":526,"ha":526,"o":"m 215 519 q 238 544 257 544 q 263 544 268 544 q 288 544 312 519 l 459 371 q 475 356 480 348 q 485 341 485 334 q 485 326 482 313 q 479 300 456 277 q 433 254 420 251 q 407 248 399 248 q 387 248 362 273 l 263 372 l 165 273 q 150 258 143 253 q 136 248 128 248 q 120 248 106 251 q 93 254 70 277 q 47 300 44 313 q 41 326 41 333 q 41 347 67 371 z"},"0":{"x_min":0,"x_max":608,"ha":608,"o":"m 553 556 q 583 466 583 365 q 583 184 505 78 q 476 38 424 12 q 373 -14 305 -14 q 237 -14 184 12 q 132 39 102 78 q 73 117 54 171 q 25 257 25 366 q 25 466 48 537 q 72 608 101 648 q 130 689 182 716 q 235 744 304 744 q 373 744 424 717 q 476 690 506 650 q 535 610 553 556 z m 303 164 q 406 164 406 360 l 406 366 q 406 567 304 567 q 202 567 202 366 q 202 164 303 164 z"},"F":{"x_min":0,"x_max":637,"ha":637,"o":"m 525 733 q 548 733 560 732 q 571 730 586 722 q 600 714 606 695 q 612 676 612 644 q 612 612 606 593 q 600 574 585 566 q 570 559 558 558 q 547 556 523 556 l 217 556 l 217 455 l 414 455 q 438 455 450 454 q 461 452 476 444 q 502 429 502 365 q 502 295 464 282 q 448 277 413 277 l 217 277 l 217 88 q 217 64 216 53 q 214 42 206 27 q 192 0 128 0 q 58 0 46 38 q 40 54 40 89 l 40 645 q 40 696 59 714 q 78 733 131 733 z"},"`":{"x_min":0,"x_max":482,"ha":482,"o":"m 305 576 l 140 628 q 114 637 105 647 q 96 657 96 672 q 96 687 104 714 q 121 765 143 771 q 151 773 155 773 q 165 773 229 753 q 293 733 328 722 q 363 711 370 708 q 392 697 392 676 q 392 655 384 631 q 376 607 368 594 q 361 582 355 576 q 349 570 338 570 q 326 570 305 576 z"},"k":{"x_min":0,"x_max":536,"ha":536,"o":"m 350 264 l 483 154 q 508 133 514 122 q 521 111 521 101 q 521 77 490 36 q 456 -6 430 -6 q 408 -6 369 23 l 359 30 q 336 49 288 96 q 240 144 215 164 l 215 87 q 215 64 214 52 q 212 41 204 26 q 191 0 127 0 q 64 0 50 27 q 43 42 42 54 q 40 65 40 88 l 40 687 q 40 710 42 722 q 43 733 50 748 q 64 775 128 775 q 176 775 196 758 q 213 744 214 714 q 215 705 215 686 l 215 369 q 233 384 270 420 q 306 456 324 471 l 336 479 q 371 506 396 506 q 421 506 454 466 q 486 425 486 402 q 486 379 449 348 z"},"u":{"x_min":0,"x_max":606,"ha":606,"o":"m 274 2 q 173 2 106 78 q 40 155 40 265 l 40 440 q 40 464 42 475 q 43 486 50 501 q 64 528 128 528 q 198 528 210 490 q 216 474 216 439 l 216 264 q 216 223 240 200 q 263 177 302 177 q 342 177 366 201 q 391 225 391 264 l 391 441 q 391 464 392 476 q 394 487 402 502 q 415 528 479 528 q 542 528 556 501 q 563 486 564 474 q 566 463 566 440 l 566 86 q 566 64 564 52 q 563 41 555 27 q 540 1 478 1 q 417 1 403 25 q 393 42 393 66 q 389 59 375 46 q 361 33 348 24 q 314 2 274 2 z"},"]":{"x_min":0,"x_max":348,"ha":348,"o":"m 226 773 q 285 773 298 746 q 308 726 308 687 l 308 -139 q 308 -179 300 -196 q 291 -214 274 -220 q 256 -226 227 -226 l 73 -226 q 27 -226 19 -196 q 15 -180 15 -154 q 15 -129 19 -113 q 23 -97 32 -91 q 47 -82 72 -82 l 146 -82 l 146 629 l 73 629 q 27 629 19 660 q 15 675 15 700 q 15 726 19 742 q 23 758 32 764 q 47 773 72 773 z"},"U":{"x_min":0,"x_max":726,"ha":726,"o":"m 680 696 q 686 679 686 644 l 686 342 q 686 210 604 102 q 564 51 501 20 q 438 -12 362 -12 q 285 -12 222 20 q 160 52 121 104 q 40 210 40 344 l 40 645 q 40 669 42 680 q 43 692 51 707 q 59 722 78 728 q 97 734 129 734 q 161 734 180 728 q 199 722 206 707 q 218 684 218 644 l 218 344 q 218 283 248 228 q 263 200 293 183 q 323 166 364 166 q 437 166 473 220 q 509 274 509 345 l 509 651 q 509 690 519 706 q 529 722 548 728 q 567 734 596 734 q 624 734 641 729 q 658 724 667 717 q 676 710 680 696 z"},"N":{"x_min":0,"x_max":720,"ha":720,"o":"m 674 694 q 680 678 680 643 l 680 88 q 680 64 678 53 q 677 42 669 27 q 655 0 591 0 q 552 0 537 6 q 522 12 512 25 q 287 325 216 417 l 216 88 q 216 64 214 53 q 213 42 205 27 q 191 0 127 0 q 65 0 51 27 q 43 42 42 54 q 40 66 40 89 l 40 647 q 40 685 50 702 q 59 720 78 726 q 97 732 127 732 q 157 732 174 726 q 192 721 199 714 q 203 711 222 688 q 433 401 504 309 l 504 647 q 504 685 514 702 q 523 720 542 726 q 561 732 590 732 q 618 732 636 727 q 653 722 662 715 q 670 708 674 694 z"},"+":{"x_min":0,"x_max":527,"ha":527,"o":"m 343 353 l 424 353 q 459 353 475 344 q 491 336 496 319 q 502 302 502 274 q 502 245 497 228 q 492 211 480 204 q 462 195 429 195 l 343 195 l 343 114 q 343 79 334 63 q 326 47 309 42 q 292 36 264 36 q 235 36 218 42 q 201 47 194 60 q 185 79 185 115 l 185 195 l 98 195 q 65 195 50 203 q 35 211 30 228 q 25 246 25 274 q 25 302 30 320 q 36 337 50 344 q 69 353 105 353 l 185 353 l 185 434 q 185 469 193 485 q 201 501 218 506 q 236 512 264 512 q 292 512 310 506 q 327 501 334 488 q 343 469 343 433 z"},"G":{"x_min":0,"x_max":714,"ha":714,"o":"m 422 442 l 598 442 q 652 440 664 414 q 674 395 674 358 l 674 138 q 674 106 646 77 q 562 -10 394 -10 q 245 -10 135 102 q 25 215 25 374 q 25 533 137 640 q 249 746 401 746 q 519 746 624 668 q 651 648 651 624 q 651 599 628 567 q 589 514 557 514 q 538 514 496 542 q 454 569 396 569 q 320 569 261 516 q 202 462 202 376 q 202 289 262 228 q 322 168 398 168 q 453 168 497 186 l 497 295 l 418 295 q 387 295 374 303 q 361 311 357 326 q 353 342 353 368 q 353 395 358 411 q 362 427 374 433 q 392 442 422 442 z"},"1":{"x_min":0,"x_max":407,"ha":407,"o":"m 218 708 q 244 734 274 734 q 305 734 322 729 q 339 724 348 718 q 357 711 362 696 q 367 679 367 643 l 367 86 q 367 63 366 52 q 364 40 356 25 q 342 -2 278 -2 q 216 -2 201 24 q 193 39 192 52 q 190 64 190 88 l 190 445 l 177 433 q 136 402 107 402 q 78 402 46 437 q 15 472 15 499 q 15 526 51 558 l 215 706 z"},"5":{"x_min":0,"x_max":530,"ha":530,"o":"m 156 735 l 308 734 l 402 734 q 426 734 437 732 q 448 731 463 723 q 490 709 490 643 q 490 583 465 570 q 451 562 440 560 q 430 559 408 559 l 233 559 q 231 547 223 483 q 234 485 258 485 q 353 485 429 414 q 505 342 505 238 q 505 135 433 60 q 361 -14 254 -14 q 161 -14 86 33 q 69 44 61 52 l 53 59 q 15 92 15 119 q 15 146 52 184 q 82 217 110 217 q 138 217 177 185 q 195 164 240 164 q 284 164 306 183 q 327 202 327 236 q 327 269 304 288 q 280 308 250 308 q 220 308 202 290 q 175 267 148 267 q 120 267 84 286 q 49 305 38 316 q 27 328 27 341 q 27 354 47 502 q 67 650 68 656 q 69 662 75 677 q 81 692 90 704 q 98 716 116 726 q 133 735 156 735 z"}}}
